<svg width="32" height="20" viewBox="0 0 32 20" fill="none" xmlns="http://www.w3.org/2000/svg">
<g id="Mastercard">
<path id="Left" fill-rule="evenodd" clip-rule="evenodd" d="M16 17.2878C14.3053 18.7501 12.107 19.6328 9.70488 19.6328C4.34502 19.6328 0 15.2379 0 9.81641C0 4.39496 4.34502 0 9.70488 0C12.107 0 14.3053 0.882744 16 2.34502C17.6946 0.882744 19.8929 0 22.295 0C27.6549 0 31.9999 4.39496 31.9999 9.81641C31.9999 15.2379 27.6549 19.6328 22.295 19.6328C19.8929 19.6328 17.6946 18.7501 16 17.2878Z" fill="#ED0006"/>
<path id="Right" fill-rule="evenodd" clip-rule="evenodd" d="M16 17.2878C18.0867 15.4873 19.4098 12.8081 19.4098 9.81641C19.4098 6.82467 18.0867 4.14553 16 2.34502C17.6947 0.882744 19.893 0 22.2951 0C27.6549 0 32 4.39496 32 9.81641C32 15.2379 27.6549 19.6328 22.2951 19.6328C19.893 19.6328 17.6947 18.7501 16 17.2878Z" fill="#F9A000"/>
<path id="Middle" fill-rule="evenodd" clip-rule="evenodd" d="M16.0001 17.288C18.0868 15.4875 19.41 12.8083 19.41 9.81661C19.41 6.82487 18.0868 4.14573 16.0001 2.34521C13.9135 4.14573 12.5903 6.82487 12.5903 9.81661C12.5903 12.8083 13.9135 15.4875 16.0001 17.288Z" fill="#FF5E00"/>
</g>
</svg>
