<svg width="42" height="14" viewBox="0 0 42 14" fill="none" xmlns="http://www.w3.org/2000/svg">
<g id="Group 76">
<path id="polygon9" d="M17.8458 12.987H14.5098L16.5963 0.230957H19.9321L17.8458 12.987Z" fill="#00579F"/>
<path id="path11" d="M29.9377 0.543074C29.2797 0.284974 28.2361 0 26.9456 0C23.6512 0 21.3313 1.7369 21.3171 4.22014C21.2897 6.05227 22.9781 7.06988 24.2408 7.68077C25.5315 8.305 25.9702 8.71244 25.9702 9.26886C25.9571 10.1234 24.9273 10.5173 23.9668 10.5173C22.6349 10.5173 21.9213 10.3142 20.8368 9.83881L20.3975 9.635L19.9307 12.4984C20.7131 12.8509 22.1546 13.1636 23.6512 13.1773C27.1516 13.1773 29.4304 11.4673 29.4574 8.82102C29.4707 7.36892 28.5792 6.25626 26.6572 5.34705C25.4904 4.76339 24.7759 4.36984 24.7759 3.77266C24.7895 3.22976 25.3802 2.6737 26.6973 2.6737C27.7818 2.64647 28.5787 2.90421 29.1823 3.16213L29.484 3.29758L29.9377 0.543074Z" fill="#00579F"/>
<path id="path13" d="M34.3732 8.46796C34.648 7.73514 35.7051 4.89893 35.7051 4.89893C35.6913 4.92617 35.9793 4.15259 36.144 3.6777L36.3772 4.77683C36.3772 4.77683 37.0089 7.83019 37.1461 8.46796C36.6247 8.46796 35.0322 8.46796 34.3732 8.46796ZM38.4911 0.230957H35.9107C35.115 0.230957 34.5104 0.461461 34.1671 1.28933L29.2119 12.9868H32.7123C32.7123 12.9868 33.2886 11.4124 33.4124 11.0733C33.7964 11.0733 37.2016 11.0733 37.6956 11.0733C37.7913 11.5211 38.0936 12.9868 38.0936 12.9868H41.1824L38.4911 0.230957Z" fill="#00579F"/>
<path id="path15" d="M11.7231 0.230957L8.45606 8.92933L8.09905 7.1652C7.49505 5.12962 5.60075 2.91801 3.48682 1.81833L6.47931 12.9734H10.007L15.2506 0.230957H11.7231Z" fill="#00579F"/>
<path id="path17" d="M5.4222 0.230957H0.0549095L0 0.488725C4.18682 1.5474 6.95967 4.09929 8.09891 7.16654L6.93213 1.30334C6.74003 0.488545 6.14971 0.257834 5.4222 0.230957Z" fill="#FAA61A"/>
</g>
</svg>
